<svg width="192" height="41" viewBox="0 0 192 41" fill="none" xmlns="http://www.w3.org/2000/svg">
<path d="M11.7515 5.88C14.0128 5.88 15.8048 6.44533 17.1275 7.576C18.4715 8.70667 19.1435 10.232 19.1435 12.152C19.1435 13.688 18.7275 14.9573 17.8955 15.96C17.0848 16.9413 15.9648 17.624 14.5355 18.008L20.3915 27H16.4555L11.0795 18.552H6.5355V27H3.1435V5.88H11.7515ZM11.4955 15.704C14.2262 15.704 15.5915 14.552 15.5915 12.248C15.5915 9.944 14.2262 8.792 11.4955 8.792H6.5355V15.704H11.4955ZM28.7075 27L36.6755 5.88H40.7715L48.7395 27H45.1235L43.1395 21.464H34.2435L32.2275 27H28.7075ZM37.7315 11.832L35.2355 18.68H42.1155L39.6835 11.896L38.7235 8.856H38.6275L37.7315 11.832ZM76.2927 5.88L68.4527 27H64.4527L56.6127 5.88H60.2607L65.1887 19.928L66.4687 24.12L67.7487 19.96L72.6768 5.88H76.2927ZM86.6985 27V5.88H101.995V8.824H90.1225V14.904H99.4025V17.784H90.1225V24.056H102.443V27H86.6985ZM130.914 5.88V27H126.85L118.69 13.688L116.642 9.944H116.61L116.738 13.368V27H113.602V5.88H117.634L125.762 19.16L127.842 22.968H127.874L127.746 19.512V5.88H130.914ZM161.037 5.88V27H156.973L148.813 13.688L146.765 9.944H146.733L146.861 13.368V27H143.725V5.88H147.757L155.885 19.16L157.965 22.968H157.997L157.869 19.512V5.88H161.037ZM171.351 27L179.319 5.88H183.415L191.383 27H187.767L185.783 21.464H176.887L174.871 27H171.351ZM180.375 11.832L177.879 18.68H184.759L182.327 11.896L181.367 8.856H181.271L180.375 11.832Z" fill="#FDFDFD"/>
<path d="M3.79572 39V33.72H7.61972V34.456H4.65172V35.976H6.97172V36.696H4.65172V38.264H7.73172V39H3.79572ZM21.2097 33.72V39H20.1937L18.1537 35.672L17.6417 34.736H17.6337L17.6657 35.592V39H16.8817V33.72H17.8897L19.9217 37.04L20.4417 37.992H20.4497L20.4177 37.128V33.72H21.2097ZM32.9163 39.08C32.4203 39.08 31.9883 38.9707 31.6203 38.752C31.2576 38.5333 30.9749 38.2213 30.7723 37.816C30.5749 37.4107 30.4763 36.9253 30.4763 36.36C30.4763 35.8 30.5829 35.3173 30.7963 34.912C31.0096 34.5067 31.3056 34.1947 31.6843 33.976C32.0683 33.752 32.5136 33.64 33.0203 33.64C33.5696 33.64 34.0123 33.744 34.3483 33.952C34.6896 34.1547 34.9616 34.4667 35.1643 34.888L34.3723 35.264C34.2709 34.9707 34.1029 34.752 33.8683 34.608C33.6389 34.4587 33.3589 34.384 33.0283 34.384C32.5323 34.384 32.1323 34.5573 31.8283 34.904C31.5243 35.2507 31.3723 35.736 31.3723 36.36C31.3723 36.9947 31.5109 37.4853 31.7883 37.832C32.0709 38.1733 32.4843 38.344 33.0283 38.344C33.4229 38.344 33.7563 38.2453 34.0283 38.048C34.3003 37.8453 34.4363 37.5387 34.4363 37.128V36.976H32.9003V36.28H35.1963V39H34.5563L34.5243 38.304C34.3696 38.5547 34.1563 38.7467 33.8843 38.88C33.6176 39.0133 33.2949 39.08 32.9163 39.08ZM44.5613 39V33.72H48.3853V34.456H45.4173V35.976H47.7373V36.696H45.4173V38.264H48.4973V39H44.5613ZM61.9753 33.72V39H60.9593L58.9193 35.672L58.4073 34.736H58.3993L58.4313 35.592V39H57.6473V33.72H58.6553L60.6873 37.04L61.2073 37.992H61.2153L61.1833 37.128V33.72H61.9753ZM72.3939 33.72V35.96H75.0019V33.72H75.8659V39H75.0019V36.696H72.3939V39H71.5379V33.72H72.3939ZM84.8045 39L86.7965 33.72H87.8205L89.8125 39H88.9085L88.4125 37.616H86.1885L85.6845 39H84.8045ZM87.0605 35.208L86.4365 36.92H88.1565L87.5485 35.224L87.3085 34.464H87.2845L87.0605 35.208ZM100.901 33.72C101.466 33.72 101.914 33.8613 102.245 34.144C102.581 34.4267 102.749 34.808 102.749 35.288C102.749 35.672 102.645 35.9893 102.437 36.24C102.234 36.4853 101.954 36.656 101.597 36.752L103.061 39H102.077L100.733 36.888H99.5968V39H98.7488V33.72H100.901ZM100.837 36.176C101.52 36.176 101.861 35.888 101.861 35.312C101.861 34.736 101.52 34.448 100.837 34.448H99.5968V36.176H100.837ZM112.98 33.72V39H112.124V33.72H112.98ZM121.922 39L123.914 33.72H124.938L126.93 39H126.026L125.53 37.616H123.306L122.802 39H121.922ZM124.178 35.208L123.554 36.92H125.274L124.666 35.224L124.426 34.464H124.402L124.178 35.208ZM147.042 38.264H149.954V39H146.186V33.72H147.042V38.264ZM161.857 33.72V34.456H160.049V39H159.193V34.456H157.385V33.72H161.857ZM172.746 33.72C173.572 33.72 174.215 33.9493 174.674 34.408C175.138 34.8613 175.37 35.512 175.37 36.36C175.37 37.208 175.138 37.8613 174.674 38.32C174.215 38.7733 173.572 39 172.746 39H170.882V33.72H172.746ZM172.746 38.272C173.306 38.272 173.732 38.1067 174.026 37.776C174.324 37.44 174.474 36.968 174.474 36.36C174.474 35.752 174.324 35.2827 174.026 34.952C173.732 34.616 173.306 34.448 172.746 34.448H171.738V38.272H172.746ZM183.828 39L185.82 33.72H186.844L188.836 39H187.932L187.436 37.616H185.212L184.708 39H183.828ZM186.084 35.208L185.46 36.92H187.18L186.572 35.224L186.332 34.464H186.308L186.084 35.208Z" fill="#FDFDFD"/>
</svg>
