<svg width="40" height="48" viewBox="0 0 40 48" fill="none" xmlns="http://www.w3.org/2000/svg">
<path d="M39.4682 9.62273L30.3773 0.531819C30.2083 0.363029 30.0077 0.229185 29.787 0.137934C29.5663 0.0466833 29.3297 -0.000187247 29.0909 5.62179e-07H10.9091C9.94467 5.62179e-07 9.01974 0.383116 8.33779 1.06507C7.65584 1.74702 7.27273 2.67194 7.27273 3.63636V7.27273H3.63636C2.67194 7.27273 1.74702 7.65584 1.06507 8.33779C0.383116 9.01974 0 9.94467 0 10.9091V43.6364C0 44.6008 0.383116 45.5257 1.06507 46.2077C1.74702 46.8896 2.67194 47.2727 3.63636 47.2727H29.0909C30.0553 47.2727 30.9803 46.8896 31.6622 46.2077C32.3442 45.5257 32.7273 44.6008 32.7273 43.6364V40H36.3636C37.3281 40 38.253 39.6169 38.9349 38.9349C39.6169 38.253 40 37.3281 40 36.3636V10.9091C40.0002 10.6703 39.9533 10.4337 39.8621 10.213C39.7708 9.99228 39.637 9.79171 39.4682 9.62273ZM29.0909 43.6364H3.63636V10.9091H21.0659L29.0909 18.9341V38.1455C29.0909 38.1591 29.0909 38.1705 29.0909 38.1818C29.0909 38.1932 29.0909 38.2045 29.0909 38.2182V43.6364ZM36.3636 36.3636H32.7273V18.1818C32.7275 17.943 32.6806 17.7064 32.5893 17.4857C32.4981 17.265 32.3642 17.0644 32.1955 16.8955L23.1045 7.80455C22.9356 7.63576 22.735 7.50191 22.5143 7.41066C22.2936 7.31941 22.057 7.27254 21.8182 7.27273H10.9091V3.63636H28.3386L36.3636 11.6614V36.3636ZM23.6364 29.0909C23.6364 29.5731 23.4448 30.0356 23.1038 30.3766C22.7629 30.7175 22.3004 30.9091 21.8182 30.9091H10.9091C10.4269 30.9091 9.96442 30.7175 9.62344 30.3766C9.28247 30.0356 9.09091 29.5731 9.09091 29.0909C9.09091 28.6087 9.28247 28.1462 9.62344 27.8053C9.96442 27.4643 10.4269 27.2727 10.9091 27.2727H21.8182C22.3004 27.2727 22.7629 27.4643 23.1038 27.8053C23.4448 28.1462 23.6364 28.6087 23.6364 29.0909ZM23.6364 36.3636C23.6364 36.8458 23.4448 37.3083 23.1038 37.6493C22.7629 37.9903 22.3004 38.1818 21.8182 38.1818H10.9091C10.4269 38.1818 9.96442 37.9903 9.62344 37.6493C9.28247 37.3083 9.09091 36.8458 9.09091 36.3636C9.09091 35.8814 9.28247 35.419 9.62344 35.078C9.96442 34.737 10.4269 34.5455 10.9091 34.5455H21.8182C22.3004 34.5455 22.7629 34.737 23.1038 35.078C23.4448 35.419 23.6364 35.8814 23.6364 36.3636Z" fill="#F9F8FF"/>
</svg>
