<svg width="40" height="41" viewBox="0 0 40 41" fill="none" xmlns="http://www.w3.org/2000/svg">
<path d="M38.5759 10.2067C39.0288 8.746 39.174 7.20727 39.0025 5.68759C38.8311 4.1679 38.3466 2.70023 37.5796 1.37712C37.4496 1.15186 37.2625 0.964805 37.0372 0.834775C36.8119 0.704745 36.5564 0.636318 36.2963 0.636377C34.5707 0.632765 32.8682 1.03279 31.3248 1.8045C29.7814 2.5762 28.4399 3.69819 27.4074 5.08082H22.963C21.9305 3.69819 20.589 2.5762 19.0456 1.8045C17.5022 1.03279 15.7997 0.632765 14.0741 0.636377C13.814 0.636318 13.5584 0.704745 13.3331 0.834775C13.1079 0.964805 12.9208 1.15186 12.7907 1.37712C12.0238 2.70023 11.5393 4.1679 11.3678 5.68759C11.1964 7.20727 11.3416 8.746 11.7944 10.2067C10.8791 11.8044 10.3888 13.61 10.3704 15.4512V16.9327C10.3735 19.4393 11.2835 21.8602 12.9323 23.7483C14.5811 25.6364 16.8573 26.8642 19.3407 27.2049C18.3271 28.502 17.7768 30.1012 17.7778 31.7475V33.229H13.3333C12.1546 33.229 11.0241 32.7607 10.1906 31.9272C9.35714 31.0937 8.88889 29.9633 8.88889 28.7845C8.88889 27.8118 8.69729 26.8485 8.32503 25.9498C7.95278 25.0511 7.40715 24.2345 6.71931 23.5467C6.03147 22.8589 5.21488 22.3132 4.31617 21.941C3.41747 21.5687 2.45424 21.3771 1.48148 21.3771C1.08857 21.3771 0.711748 21.5332 0.433916 21.811C0.156084 22.0889 0 22.4657 0 22.8586C0 23.2515 0.156084 23.6283 0.433916 23.9062C0.711748 24.184 1.08857 24.3401 1.48148 24.3401C2.66022 24.3401 3.79068 24.8083 4.62418 25.6418C5.45767 26.4753 5.92593 27.6058 5.92593 28.7845C5.92593 30.7491 6.70635 32.6332 8.0955 34.0224C9.48466 35.4115 11.3688 36.1919 13.3333 36.1919H17.7778V39.1549C17.7778 39.5478 17.9339 39.9246 18.2117 40.2025C18.4895 40.4803 18.8663 40.6364 19.2593 40.6364C19.6522 40.6364 20.029 40.4803 20.3068 40.2025C20.5847 39.9246 20.7407 39.5478 20.7407 39.1549V31.7475C20.7407 30.5687 21.209 29.4383 22.0425 28.6048C22.876 27.7713 24.0064 27.303 25.1852 27.303C26.3639 27.303 27.4944 27.7713 28.3279 28.6048C29.1614 29.4383 29.6296 30.5687 29.6296 31.7475V39.1549C29.6296 39.5478 29.7857 39.9246 30.0635 40.2025C30.3414 40.4803 30.7182 40.6364 31.1111 40.6364C31.504 40.6364 31.8808 40.4803 32.1587 40.2025C32.4365 39.9246 32.5926 39.5478 32.5926 39.1549V31.7475C32.5935 30.1012 32.0433 28.502 31.0296 27.2049C33.513 26.8642 35.7893 25.6364 37.4381 23.7483C39.0869 21.8602 39.9969 19.4393 40 16.9327V15.4512C39.9816 13.61 39.4912 11.8044 38.5759 10.2067ZM37.037 16.9327C37.037 18.8972 36.2566 20.7813 34.8675 22.1705C33.4783 23.5597 31.5942 24.3401 29.6296 24.3401H20.7407C18.7762 24.3401 16.8921 23.5597 15.5029 22.1705C14.1138 20.7813 13.3333 18.8972 13.3333 16.9327V15.4512C13.3515 13.9698 13.795 12.5247 14.6111 11.2882C14.7632 11.0877 14.8618 10.8517 14.8974 10.6026C14.9331 10.3534 14.9046 10.0993 14.8148 9.86415C14.4289 8.86896 14.2432 7.80741 14.2683 6.74032C14.2934 5.67323 14.5289 4.62158 14.9611 3.64564C16.1735 3.77607 17.3411 4.1777 18.3772 4.82077C19.4133 5.46383 20.2913 6.33184 20.9463 7.36045C21.0798 7.56916 21.2634 7.74107 21.4805 7.86045C21.6976 7.97983 21.9412 8.04286 22.1889 8.04378H28.1796C28.4283 8.04379 28.673 7.9812 28.8911 7.86178C29.1092 7.74236 29.2938 7.56995 29.4278 7.36045C30.0826 6.33175 30.9607 5.46367 31.9968 4.82059C33.0329 4.17752 34.2005 3.77594 35.413 3.64564C35.8446 4.62182 36.0794 5.6736 36.1039 6.74069C36.1284 7.80778 35.942 8.86921 35.5556 9.86415C35.466 10.097 35.4361 10.3486 35.4684 10.596C35.5007 10.8434 35.5943 11.0788 35.7407 11.2808C36.5649 12.5173 37.015 13.9653 37.037 15.4512V16.9327Z" fill="#F9F8FF"/>
</svg>
