<svg width="40" height="41" viewBox="0 0 40 41" fill="none" xmlns="http://www.w3.org/2000/svg">
<path d="M36.9231 0.636353H3.07692C2.26087 0.636353 1.47824 0.960527 0.90121 1.53756C0.324175 2.1146 0 2.89722 0 3.71328V37.5594C0 38.3755 0.324175 39.1581 0.90121 39.7351C1.47824 40.3122 2.26087 40.6364 3.07692 40.6364H36.9231C37.7391 40.6364 38.5218 40.3122 39.0988 39.7351C39.6758 39.1581 40 38.3755 40 37.5594V3.71328C40 2.89722 39.6758 2.1146 39.0988 1.53756C38.5218 0.960527 37.7391 0.636353 36.9231 0.636353ZM36.9231 37.5594H3.07692V3.71328H36.9231V37.5594ZM13.8462 17.5594V29.8671C13.8462 30.2751 13.6841 30.6665 13.3955 30.955C13.107 31.2435 12.7157 31.4056 12.3077 31.4056C11.8997 31.4056 11.5084 31.2435 11.2198 30.955C10.9313 30.6665 10.7692 30.2751 10.7692 29.8671V17.5594C10.7692 17.1514 10.9313 16.7601 11.2198 16.4716C11.5084 16.1831 11.8997 16.021 12.3077 16.021C12.7157 16.021 13.107 16.1831 13.3955 16.4716C13.6841 16.7601 13.8462 17.1514 13.8462 17.5594ZM30.7692 22.944V29.8671C30.7692 30.2751 30.6071 30.6665 30.3186 30.955C30.0301 31.2435 29.6388 31.4056 29.2308 31.4056C28.8227 31.4056 28.4314 31.2435 28.1429 30.955C27.8544 30.6665 27.6923 30.2751 27.6923 29.8671V22.944C27.6923 21.924 27.2871 20.9457 26.5658 20.2244C25.8445 19.5031 24.8662 19.0979 23.8462 19.0979C22.8261 19.0979 21.8478 19.5031 21.1265 20.2244C20.4052 20.9457 20 21.924 20 22.944V29.8671C20 30.2751 19.8379 30.6665 19.5494 30.955C19.2609 31.2435 18.8696 31.4056 18.4615 31.4056C18.0535 31.4056 17.6622 31.2435 17.3737 30.955C17.0852 30.6665 16.9231 30.2751 16.9231 29.8671V17.5594C16.925 17.1826 17.0651 16.8196 17.3169 16.5392C17.5688 16.2588 17.9147 16.0807 18.2892 16.0384C18.6637 15.9962 19.0406 16.0929 19.3485 16.3102C19.6564 16.5275 19.8739 16.8502 19.9596 17.2171C21.0004 16.5111 22.2138 16.1019 23.4695 16.0335C24.7253 15.9651 25.9759 16.24 27.0872 16.8288C28.1985 17.4175 29.1284 18.2979 29.7771 19.3753C30.4258 20.4527 30.7688 21.6864 30.7692 22.944ZM14.6154 12.1748C14.6154 12.6312 14.48 13.0774 14.2265 13.4569C13.9729 13.8364 13.6125 14.1322 13.1908 14.3068C12.7691 14.4815 12.3051 14.5272 11.8575 14.4382C11.4098 14.3491 10.9986 14.1293 10.6759 13.8066C10.3532 13.4839 10.1334 13.0727 10.0443 12.625C9.9553 12.1774 10.001 11.7134 10.1757 11.2917C10.3503 10.87 10.6461 10.5096 11.0256 10.256C11.4051 10.0025 11.8513 9.86712 12.3077 9.86712C12.9197 9.86712 13.5067 10.1103 13.9395 10.543C14.3723 10.9758 14.6154 11.5628 14.6154 12.1748Z" fill="#F9F8FF"/>
</svg>
