<svg width="170" height="176" viewBox="0 0 170 176" fill="none" xmlns="http://www.w3.org/2000/svg">
<rect width="170" height="176" rx="30" fill="#141320"/>
<g filter="url(#filter0_d_324_6)">
<path d="M39.8722 151H36.8722V154H39.8722V151ZM39.8722 25.9091V22.9091H36.8722V25.9091H39.8722ZM113.473 31.3452L112.042 33.9819L112.048 33.9853L112.055 33.9886L113.473 31.3452ZM128.743 46.3097L126.112 47.7509L126.117 47.7609L126.123 47.7709L128.743 46.3097ZM113.107 105.129L111.72 102.469L111.714 102.472L113.107 105.129ZM57.0966 110.443H54.0966V113.443H57.0966V110.443ZM57.0966 89.2486V86.2486H54.0966V89.2486H57.0966ZM96.8594 86.6222L98.2661 89.272L98.2778 89.2656L96.8594 86.6222ZM104.311 79.2315L101.656 77.8357L101.652 77.8421L101.649 77.8486L104.311 79.2315ZM104.311 57.4261L101.649 58.8091L101.66 58.8299L101.671 58.8505L104.311 57.4261ZM96.8594 50.1577L95.4661 52.8145L95.4789 52.8212L95.4917 52.8278L96.8594 50.1577ZM66.3196 47.5312V44.5312H63.3196V47.5312H66.3196ZM66.3196 151V154H69.3196V151H66.3196ZM42.8722 151V25.9091H36.8722V151H42.8722ZM39.8722 28.9091H89.2244V22.9091H39.8722V28.9091ZM89.2244 28.9091C98.3346 28.9091 105.9 30.6484 112.042 33.9819L114.904 28.7084C107.69 24.7938 99.0897 22.9091 89.2244 22.9091V28.9091ZM112.055 33.9886C118.242 37.3087 122.901 41.8886 126.112 47.7509L131.374 44.8684C127.581 37.9447 122.06 32.5483 114.891 28.7017L112.055 33.9886ZM126.123 47.7709C129.383 53.6162 131.057 60.4293 131.057 68.2983H137.057C137.057 59.5536 135.188 51.7076 131.363 44.8484L126.123 47.7709ZM131.057 68.2983C131.057 76.1615 129.365 82.97 126.069 88.813L131.295 91.7609C135.165 84.8994 137.057 77.0487 137.057 68.2983H131.057ZM126.069 88.813C122.786 94.6326 118.033 99.18 111.72 102.469L114.493 107.79C121.78 103.993 127.411 98.6458 131.295 91.7609L126.069 88.813ZM111.714 102.472C105.481 105.739 97.8003 107.443 88.5526 107.443V113.443C98.5245 113.443 107.213 111.605 114.499 107.786L111.714 102.472ZM88.5526 107.443H57.0966V113.443H88.5526V107.443ZM60.0966 110.443V89.2486H54.0966V110.443H60.0966ZM57.0966 92.2486H84.277V86.2486H57.0966V92.2486ZM84.277 92.2486C89.6878 92.2486 94.4061 91.3211 98.266 89.2719L95.4527 83.9724C92.7161 85.4251 89.0461 86.2486 84.277 86.2486V92.2486ZM98.2778 89.2656C102.108 87.2103 105.046 84.3251 106.973 80.6145L101.649 77.8486C100.319 80.4088 98.2885 82.4507 95.4409 83.9787L98.2778 89.2656ZM106.967 80.6274C108.893 76.9615 109.815 72.8257 109.815 68.2983H103.815C103.815 71.9963 103.068 75.1492 101.656 77.8357L106.967 80.6274ZM109.815 68.2983C109.815 63.7377 108.896 59.6071 106.951 56.0018L101.671 58.8505C103.065 61.4346 103.815 64.552 103.815 68.2983H109.815ZM106.973 56.0432C105.039 52.3195 102.084 49.4633 98.227 47.4875L95.4917 52.8278C98.3123 54.2725 100.326 56.2619 101.649 58.8091L106.973 56.0432ZM98.2526 47.5008C94.357 45.458 89.604 44.5312 84.1548 44.5312V50.5312C88.967 50.5312 92.6837 51.3554 95.4661 52.8145L98.2526 47.5008ZM84.1548 44.5312H66.3196V50.5312H84.1548V44.5312ZM63.3196 47.5312V151H69.3196V47.5312H63.3196ZM66.3196 148H39.8722V154H66.3196V148Z" fill="#F9F8FF"/>
<path d="M110.057 152.5L91.1285 99.5H119.943L138.871 152.5H110.057Z" stroke="white" stroke-width="3"/>
</g>
<defs>
<filter id="filter0_d_324_6" x="23.8722" y="9.90906" width="133.128" height="160.091" filterUnits="userSpaceOnUse" color-interpolation-filters="sRGB">
<feFlood flood-opacity="0" result="BackgroundImageFix"/>
<feColorMatrix in="SourceAlpha" type="matrix" values="0 0 0 0 0 0 0 0 0 0 0 0 0 0 0 0 0 0 127 0" result="hardAlpha"/>
<feOffset/>
<feGaussianBlur stdDeviation="8"/>
<feComposite in2="hardAlpha" operator="out"/>
<feColorMatrix type="matrix" values="0 0 0 0 1 0 0 0 0 1 0 0 0 0 1 0 0 0 0.8 0"/>
<feBlend mode="normal" in2="BackgroundImageFix" result="effect1_dropShadow_324_6"/>
<feBlend mode="normal" in="SourceGraphic" in2="effect1_dropShadow_324_6" result="shape"/>
</filter>
</defs>
</svg>
