<svg width="50" height="41" viewBox="0 0 50 41" fill="none" xmlns="http://www.w3.org/2000/svg">
<path d="M46.6667 8.96969H43.3333V3.96969C43.3333 3.08563 42.9821 2.23778 42.357 1.61266C41.7319 0.987542 40.8841 0.636353 40 0.636353H8.33333C7.44928 0.636353 6.60143 0.987542 5.97631 1.61266C5.35119 2.23778 5 3.08563 5 3.96969V8.96969H1.66667C1.22464 8.96969 0.800716 9.14528 0.488155 9.45784C0.175595 9.7704 0 10.1943 0 10.6364C0 11.0784 0.175595 11.5023 0.488155 11.8149C0.800716 12.1274 1.22464 12.303 1.66667 12.303H5V17.303C5 18.1871 5.35119 19.0349 5.97631 19.66C6.60143 20.2852 7.44928 20.6364 8.33333 20.6364H40C40.8841 20.6364 41.7319 20.2852 42.357 19.66C42.9821 19.0349 43.3333 18.1871 43.3333 17.303V12.303H46.6667V22.7197L25.75 28.6884C25.0561 28.8894 24.4458 29.3094 24.0102 29.8858C23.5746 30.4621 23.3372 31.1639 23.3333 31.8864V38.9697C23.3333 39.4117 23.5089 39.8356 23.8215 40.1482C24.134 40.4608 24.558 40.6364 25 40.6364C25.442 40.6364 25.866 40.4608 26.1785 40.1482C26.4911 39.8356 26.6667 39.4117 26.6667 38.9697V31.8864L47.5833 25.9114C48.2762 25.7107 48.8858 25.2916 49.3213 24.7165C49.7567 24.1414 49.9948 23.441 50 22.7197V12.303C50 11.419 49.6488 10.5711 49.0237 9.946C48.3986 9.32088 47.5507 8.96969 46.6667 8.96969ZM40 17.303H8.33333V3.96969H40V17.303Z" fill="#F9F8FF"/>
</svg>
