<svg width="43" height="40" viewBox="0 0 43 40" fill="none" xmlns="http://www.w3.org/2000/svg">
<path fill-rule="evenodd" clip-rule="evenodd" d="M21.5393 0.149902C9.68871 0.149902 0.0791016 9.23982 0.0791016 20.4537C0.0791016 29.4246 6.2281 37.0354 14.7549 39.7202C15.8274 39.9082 16.2212 39.2798 16.2212 38.7435C16.2212 38.2593 16.2013 36.6599 16.192 34.9633C10.2218 36.1915 8.96198 32.5676 8.96198 32.5676C7.98577 30.2208 6.57921 29.5967 6.57921 29.5967C4.63213 28.3366 6.72598 28.3624 6.72598 28.3624C8.88095 28.5053 10.0157 30.4548 10.0157 30.4548C11.9297 33.5588 15.036 32.6615 16.2606 32.1427C16.4532 30.8307 17.0094 29.9343 17.6231 29.4276C12.8565 28.9142 7.84575 27.1732 7.84575 19.3932C7.84575 17.1765 8.68408 15.3652 10.0569 13.9433C9.83406 13.4316 9.09951 11.3668 10.2648 8.57006C10.2648 8.57006 12.0669 8.02436 16.1679 10.6513C17.8797 10.2014 19.7155 9.97582 21.5393 9.96809C23.3631 9.97582 25.2003 10.2014 26.9154 10.6513C31.0114 8.02436 32.811 8.57006 32.811 8.57006C33.9791 11.3668 33.2442 13.4316 33.0214 13.9433C34.3974 15.3652 35.23 17.1765 35.23 19.3932C35.23 27.1917 30.2097 28.9088 25.431 29.4115C26.2007 30.0416 26.8866 31.2772 26.8866 33.1715C26.8866 35.8879 26.8617 38.0744 26.8617 38.7435C26.8617 39.2838 27.248 39.9169 28.3358 39.7175C36.858 37.0297 42.9991 29.4216 42.9991 20.4537C42.9991 9.23982 33.391 0.149902 21.5393 0.149902Z" fill="white"/>
<path fill-rule="evenodd" clip-rule="evenodd" d="M8.20717 29.3019C8.1599 29.4031 7.99217 29.433 7.83936 29.3637C7.6837 29.2975 7.59628 29.16 7.64675 29.0588C7.69295 28.9549 7.86104 28.9263 8.01633 28.9952C8.17234 29.0618 8.26118 29.2007 8.20717 29.3019Z" fill="white"/>
<path fill-rule="evenodd" clip-rule="evenodd" d="M9.07641 30.2191C8.97406 30.3089 8.77399 30.2672 8.63823 30.1253C8.49786 29.9837 8.47156 29.7944 8.57533 29.7033C8.68088 29.6135 8.87491 29.6556 9.01564 29.7971C9.15601 29.9404 9.18337 30.1283 9.07641 30.2191Z" fill="white"/>
<path fill-rule="evenodd" clip-rule="evenodd" d="M9.92255 31.3885C9.79106 31.4749 9.57606 31.3939 9.44315 31.2133C9.31166 31.0328 9.31166 30.8162 9.44599 30.7295C9.57926 30.6427 9.79106 30.7207 9.92575 30.9C10.0569 31.0832 10.0569 31.3001 9.92255 31.3885Z" fill="white"/>
<path fill-rule="evenodd" clip-rule="evenodd" d="M11.0818 32.5182C10.9641 32.6409 10.7136 32.608 10.5302 32.4405C10.3426 32.2768 10.2904 32.0445 10.4083 31.9217C10.5274 31.7987 10.7794 31.8333 10.9641 31.9994C11.1504 32.1628 11.2072 32.3968 11.0818 32.5182Z" fill="white"/>
<path fill-rule="evenodd" clip-rule="evenodd" d="M12.6809 33.1742C12.6291 33.3332 12.3878 33.4055 12.1447 33.3379C11.902 33.2683 11.7431 33.0821 11.7922 32.9214C11.8426 32.7613 12.085 32.686 12.3298 32.7583C12.5722 32.8275 12.7314 33.0125 12.6809 33.1742Z" fill="white"/>
<path fill-rule="evenodd" clip-rule="evenodd" d="M14.4372 33.2959C14.4432 33.4634 14.2371 33.6022 13.982 33.6049C13.7254 33.6106 13.5178 33.4751 13.515 33.3104C13.515 33.1413 13.7165 33.0037 13.9731 32.9997C14.2282 32.995 14.4372 33.1295 14.4372 33.2959Z" fill="white"/>
<path fill-rule="evenodd" clip-rule="evenodd" d="M16.0715 33.0326C16.1021 33.1961 15.9248 33.3638 15.6714 33.4082C15.4223 33.4516 15.1916 33.3507 15.16 33.1887C15.1291 33.0212 15.3096 32.8534 15.5584 32.8101C15.8121 32.7684 16.0392 32.8666 16.0715 33.0326Z" fill="white"/>
</svg>
