<svg width="43" height="43" viewBox="0 0 43 43" fill="none" xmlns="http://www.w3.org/2000/svg">
<path fill-rule="evenodd" clip-rule="evenodd" d="M0 21.402C0 9.58201 9.58201 0 21.402 0C33.222 0 42.8041 9.58201 42.8041 21.402C42.8041 33.222 33.222 42.8041 21.402 42.8041C9.58201 42.8041 0 33.222 0 21.402ZM15.1248 17.7261H10.2746V32.2988H15.1248V17.7261ZM15.4438 13.2182C15.4123 11.7893 14.3906 10.701 12.7314 10.701C11.0721 10.701 9.98741 11.7893 9.98741 13.2182C9.98741 14.6174 11.0401 15.737 12.6684 15.737H12.6994C14.3906 15.737 15.4438 14.6174 15.4438 13.2182ZM32.6158 23.9433C32.6158 19.4672 30.2231 17.3839 27.0315 17.3839C24.4564 17.3839 23.3034 18.7984 22.6597 19.7906V17.7265H17.8089C17.8729 19.0939 17.8089 32.2992 17.8089 32.2992H22.6597V24.1606C22.6597 23.7251 22.6912 23.2906 22.8194 22.9788C23.17 22.1087 23.9681 21.2079 25.308 21.2079C27.0638 21.2079 27.7657 22.5441 27.7657 24.5024V32.2989H32.6156L32.6158 23.9433Z" fill="white"/>
</svg>
