<svg width="47" height="47" viewBox="0 0 47 47" fill="none" xmlns="http://www.w3.org/2000/svg">
<circle cx="23.2106" cy="23.2106" r="23" fill="white"/>
<path d="M24.5353 15.8528C26.7966 15.8662 28.5866 16.4421 29.9052 17.5806C31.2452 18.7192 31.9118 20.2485 31.905 22.1685C31.8996 23.7045 31.4791 24.9713 30.6435 25.9691C29.8294 26.9456 28.707 27.6216 27.2763 27.9972L33.1004 37.0238L29.1645 37.0005L23.8185 28.5207L19.2746 28.4938L19.2446 36.9418L15.8527 36.9217L15.9275 15.8019L24.5353 15.8528ZM24.2446 25.6752C26.9752 25.6914 28.3446 24.5475 28.3527 22.2435C28.3609 19.9395 26.9997 18.7794 24.269 18.7633L19.3091 18.7339L19.2846 25.6459L24.2446 25.6752Z" fill="#0A0A0A"/>
<path fill-rule="evenodd" clip-rule="evenodd" d="M42.9795 13.6077C38.175 10.0749 31.4426 7.87877 23.9897 7.87877C16.5368 7.87877 9.80449 10.0749 5.00003 13.6077C9.33156 9.04081 16.2254 6.08709 23.9897 6.08709C31.7541 6.08709 38.6479 9.04081 42.9795 13.6077Z" fill="#540B0B"/>
</svg>