<svg width="205" height="205" viewBox="0 0 205 205" fill="none" xmlns="http://www.w3.org/2000/svg">
<circle cx="102.5" cy="102.5" r="102.5" fill="#333333"/>
<path d="M131.947 169.705C131.277 171.769 132.405 174.006 134.525 174.467C140.464 175.758 146.641 175.657 152.565 174.149C159.763 172.317 166.294 168.483 171.401 163.09C176.508 157.698 179.983 150.968 181.422 143.682C182.861 136.395 182.205 128.85 179.531 121.921C176.857 114.992 172.274 108.962 166.313 104.532C160.352 100.101 153.258 97.4502 145.852 96.8869C138.446 96.3235 131.032 97.8706 124.47 101.349C119.068 104.211 114.426 108.286 110.894 113.232C109.632 114.998 110.3 117.413 112.183 118.492C114.067 119.57 116.449 118.899 117.754 117.165C120.517 113.494 124.062 110.459 128.15 108.293C133.4 105.51 139.331 104.273 145.256 104.723C151.181 105.174 156.856 107.294 161.625 110.839C166.394 114.384 170.06 119.207 172.199 124.751C174.339 130.294 174.863 136.33 173.712 142.159C172.561 147.988 169.781 153.372 165.695 157.686C161.609 162 156.384 165.067 150.626 166.533C146.142 167.675 141.478 167.808 136.965 166.945C134.833 166.537 132.618 167.641 131.947 169.705Z" fill="url(#paint0_linear)"/>
<path d="M111.584 117.852C113.129 119.502 115.732 119.597 117.258 117.929C123.524 111.079 127.895 102.68 129.896 93.5642C132.19 83.1126 131.261 72.211 127.231 62.2984C123.201 52.3858 116.26 43.9281 107.324 38.0419C98.388 32.1557 87.8771 29.1176 77.1788 29.3287C66.4804 29.5397 56.0975 32.99 47.4006 39.224C38.7037 45.4581 32.1017 54.1828 28.4659 64.2467C24.8302 74.3105 24.3316 85.2403 27.0361 95.5933C29.3949 104.623 34.0932 112.843 40.6251 119.441C42.2154 121.048 44.8131 120.85 46.2918 119.14C47.7705 117.43 47.5676 114.858 46.0002 113.229C40.7091 107.731 36.8964 100.951 34.9563 93.5243C32.6703 84.7733 33.0917 75.5347 36.1649 67.0281C39.2381 58.5214 44.8186 51.1467 52.1698 45.8773C59.521 40.6078 68.2973 37.6915 77.3402 37.5131C86.3832 37.3347 95.2677 39.9027 102.821 44.8781C110.374 49.8535 116.241 57.0024 119.648 65.3812C123.054 73.76 123.839 82.9748 121.9 91.8092C120.254 99.3068 116.712 106.231 111.642 111.934C110.14 113.623 110.039 116.202 111.584 117.852Z" fill="url(#paint1_linear)"/>
<defs>
<linearGradient id="paint0_linear" x1="166.131" y1="104.397" x2="119.612" y2="167.74" gradientUnits="userSpaceOnUse">
<stop stop-color="#FFDB6F"/>
<stop offset="1" stop-color="#FFDB6F" stop-opacity="0.5"/>
</linearGradient>
<linearGradient id="paint1_linear" x1="56.0189" y1="34.2032" x2="100.425" y2="130.241" gradientUnits="userSpaceOnUse">
<stop stop-color="#FFDB6F"/>
<stop offset="1" stop-color="#FFDB6F" stop-opacity="0.5"/>
</linearGradient>
</defs>
</svg>
