<svg width="205" height="205" viewBox="0 0 205 205" fill="none" xmlns="http://www.w3.org/2000/svg">
<path d="M205 102.5C205 159.109 159.109 205 102.5 205C45.8908 205 0 159.109 0 102.5C0 45.8908 45.8908 0 102.5 0C159.109 0 205 45.8908 205 102.5Z" fill="#F02C2C"/>
<path fill-rule="evenodd" clip-rule="evenodd" d="M35.9162 55.6786C36.0457 57.3951 38.139 58.157 39.3415 56.9253L76.8845 18.4743L100.678 71.1326C101.386 72.7012 103.614 72.7012 104.323 71.1326L130.683 12.7936L173.772 56.9256C174.975 58.1572 177.068 57.3953 177.198 55.6788L178.827 34.0856C160.061 13.1629 132.817 0 102.499 0C76.0289 0 51.9021 10.034 33.7148 26.5059L35.9162 55.6786Z" fill="#0EB33D"/>
<path fill-rule="evenodd" clip-rule="evenodd" d="M63.777 109.334C63.777 119.397 59.6978 127.556 54.6658 127.556C49.6339 127.556 45.5547 119.397 45.5547 109.334C45.5547 99.2697 49.6339 91.1113 54.6658 91.1113C59.6978 91.1113 63.777 99.2697 63.777 109.334ZM136.667 109.334C136.667 119.397 132.588 127.556 127.556 127.556C122.524 127.556 118.444 119.397 118.444 109.334C118.444 99.2697 122.524 91.1113 127.556 91.1113C132.588 91.1113 136.667 99.2697 136.667 109.334ZM93.5329 154.889C94.0852 154.889 94.5359 155.337 94.5047 155.889C94.442 156.997 94.2757 158.09 94.0111 159.155C94.6898 161.302 95.8774 163.277 97.4992 164.899C100.154 167.554 103.755 169.045 107.509 169.045C111.263 169.045 114.864 167.554 117.519 164.899C119.937 162.481 121.39 159.278 121.63 155.888C121.669 155.337 122.113 154.889 122.665 154.889H124.204C124.756 154.889 125.207 155.337 125.176 155.889C124.931 160.217 123.103 164.319 120.021 167.401C116.703 170.72 112.202 172.584 107.509 172.584C102.816 172.584 98.3153 170.72 94.9968 167.401C93.8884 166.293 92.9422 165.052 92.1735 163.717C91.4048 165.052 90.4586 166.293 89.3502 167.401C86.0317 170.72 81.531 172.584 76.838 172.584C72.145 172.584 67.6442 170.72 64.3258 167.401C61.2437 164.319 59.416 160.217 59.1713 155.889C59.1401 155.337 59.5908 154.889 60.1431 154.889H61.682C62.2343 154.889 62.6784 155.337 62.7173 155.888C62.957 159.278 64.41 162.481 66.8282 164.899C69.483 167.554 73.0836 169.045 76.838 169.045C80.5924 169.045 84.193 167.554 86.8477 164.899C88.4696 163.277 89.6572 161.302 90.3359 159.155C90.0713 158.09 89.9049 156.997 89.8423 155.889C89.8111 155.337 90.2618 154.889 90.8141 154.889H91.9917L91.9939 154.889H93.5329Z" fill="#C20606"/>
<ellipse cx="102.5" cy="102.5" rx="102.5" ry="102.5" fill="url(#paint0_linear)"/>
<defs>
<linearGradient id="paint0_linear" x1="36.4444" y1="186.778" x2="97.9444" y2="116.167" gradientUnits="userSpaceOnUse">
<stop stop-color="white" stop-opacity="0.5"/>
<stop offset="1" stop-color="white" stop-opacity="0"/>
</linearGradient>
</defs>
</svg>
