<svg width="834" height="253" viewBox="0 0 834 253" fill="none" xmlns="http://www.w3.org/2000/svg">
<path fill-rule="evenodd" clip-rule="evenodd" d="M999.921 49.6558C1211.34 37.2275 1392.64 -30.445 1568.04 16.1969C1757.74 66.6438 1874.69 165.433 1822.57 251.286C1774.14 331.081 1514.52 352.298 1336.22 398.088C1211.14 430.212 1098.15 462.905 950.764 475.184C747.153 492.148 511.976 529.991 349.434 480.303C183.116 429.46 188.448 331.708 218.34 251.286C244.177 181.771 356.795 123.942 498.567 79.0667C626.091 38.701 836.043 59.2895 999.921 49.6558Z" fill="#847979"/>
<path fill-rule="evenodd" clip-rule="evenodd" d="M681.362 167.14C788.451 232.279 904.018 326.133 871.379 424.296C839.216 521.028 652.709 526.516 542.068 586.076C439.145 641.481 383.86 762.453 255.69 755.731C127.281 748.997 86.9532 629.746 5.53012 557.939C-77.1369 485.034 -209.099 432.655 -217.165 338.718C-226.103 234.63 -163.092 118.101 -36.6017 67.2929C82.8301 19.3195 219.426 90.7372 353.705 109.411C468.474 125.372 592.07 112.827 681.362 167.14Z" fill="#540B0B"/>
</svg>
