<svg width="414" height="160" viewBox="0 0 414 160" fill="none" xmlns="http://www.w3.org/2000/svg">
<path fill-rule="evenodd" clip-rule="evenodd" d="M255.962 55.1364C342.604 41.763 416.906 -31.0563 488.785 19.1329C566.528 73.4164 614.455 179.719 593.097 272.101C573.247 357.964 466.851 380.796 393.783 430.067C342.521 464.635 296.217 499.814 235.817 513.028C152.374 531.282 55.9953 572.002 -10.6168 518.535C-78.7765 463.826 -76.5913 358.639 -64.3413 272.101C-53.7528 197.3 -7.60023 135.073 50.5 86.7841C102.761 43.3485 188.803 65.5029 255.962 55.1364Z" fill="#847979"/>
<path fill-rule="evenodd" clip-rule="evenodd" d="M416.557 100.265C482.965 156.367 554.63 237.201 534.39 321.745C514.445 405.057 398.789 409.784 330.179 461.081C266.355 508.8 232.072 612.988 152.592 607.199C72.9635 601.4 47.9555 498.692 -2.53627 436.847C-53.7993 374.057 -135.631 328.944 -140.633 248.04C-146.176 158.392 -107.101 58.0294 -28.6628 14.2697C45.3987 -27.0482 130.104 34.4616 213.372 50.5451C284.542 64.2917 361.186 53.487 416.557 100.265Z" fill="#540B0B"/>
</svg>
