<svg width="1440" height="165" viewBox="0 0 1440 165" fill="none" xmlns="http://www.w3.org/2000/svg">
<path fill-rule="evenodd" clip-rule="evenodd" d="M829.877 55.3922C1030.42 42.0288 1202.4 -30.736 1368.77 19.4157C1548.72 73.6586 1659.65 179.881 1610.21 272.195C1564.27 357.994 1318 380.808 1148.88 430.043C1030.23 464.585 923.051 499.737 783.248 512.941C590.111 531.181 367.031 571.872 212.85 518.444C55.0873 463.776 60.1453 358.668 88.4991 272.195C113.008 197.449 219.833 135.269 354.312 87.0163C475.277 43.6131 674.428 65.7509 829.877 55.3922Z" fill="#847979"/>
<path fill-rule="evenodd" clip-rule="evenodd" d="M1201.57 100.265C1355.28 156.367 1521.17 237.201 1474.32 321.745C1428.15 405.057 1160.44 409.784 1001.62 461.081C853.883 508.799 774.527 612.988 590.55 607.199C406.23 601.399 348.343 498.692 231.467 436.847C112.805 374.057 -76.6146 328.944 -88.1931 248.04C-101.023 158.392 -10.5754 58.0294 170.99 14.2696C342.424 -27.0483 538.497 34.4615 731.242 50.545C895.983 64.2917 1073.4 53.487 1201.57 100.265Z" fill="#540B0B"/>
</svg>
