<svg width="302" height="278" viewBox="0 0 302 278" fill="none" xmlns="http://www.w3.org/2000/svg">
<circle cx="151" cy="139" r="139" fill="#333333"/>
<path d="M94.245 193.105L15.555 153.76V135.46L94.245 96.115V112.036L37.515 139.852C35.197 140.95 33.001 141.926 30.927 142.78C28.975 143.512 27.511 144 26.535 144.244C27.633 144.488 29.219 145.037 31.293 145.891C33.367 146.623 35.441 147.538 37.515 148.636L94.245 176.635V193.105ZM95.932 225.13L160.897 53.11H178.282L113.317 225.13H95.932ZM207.491 193.105V177.184L264.221 149.368C266.539 148.27 268.674 147.355 270.626 146.623C272.7 145.769 274.225 145.22 275.201 144.976C274.103 144.732 272.517 144.244 270.443 143.512C268.369 142.658 266.295 141.682 264.221 140.584L207.491 112.585V96.115L286.181 135.46V153.76L207.491 193.105Z" fill="url(#paint0_linear)"/>
<defs>
<linearGradient id="paint0_linear" x1="84" y1="89" x2="155.499" y2="232.629" gradientUnits="userSpaceOnUse">
<stop offset="0.0199526" stop-color="#DF700A"/>
<stop offset="0.520833" stop-color="#D7C62C"/>
<stop offset="1" stop-color="#549BD6"/>
</linearGradient>
</defs>
</svg>
