<svg width="43" height="43" viewBox="0 0 43 43" fill="none" xmlns="http://www.w3.org/2000/svg">
<path d="M0 21.5C0 9.62591 9.62591 0 21.5 0C33.3741 0 43 9.62591 43 21.5C43 33.3741 33.3741 43 21.5 43C9.62591 43 0 33.3741 0 21.5Z" fill="white"/>
<path d="M30.8793 29.7685H12.0947C11.3663 29.7685 10.7529 29.1743 10.7529 28.4267V14.8558C10.7529 14.1275 11.3471 13.5142 12.0947 13.5142H30.8793C31.6077 13.5142 32.221 14.1084 32.221 14.8558V28.4267C32.221 29.1743 31.6268 29.7685 30.8793 29.7685Z" fill="#E3E3E3"/>
<path opacity="0.1" d="M13.4365 29.7685L21.4678 23.3089L21.5253 22.9639L13.2448 17.0027L13.2256 29.481L13.4365 29.7685Z" fill="#231F20"/>
<path d="M12.0947 29.7686C11.3471 29.7686 10.7529 29.1744 10.7529 28.4268V14.8368C10.7529 14.0893 11.3471 13.9551 12.0947 13.9551C12.8423 13.9551 13.4365 14.1084 13.4365 14.8368V29.7686H12.0947Z" fill="#D54B3D"/>
<path fill-rule="evenodd" clip-rule="evenodd" d="M10.7529 14.8368C10.7529 14.1084 11.3471 13.9551 12.0947 13.9551C12.8423 13.9551 13.4365 14.0893 13.4365 14.8368V29.7686H12.0947C11.3471 29.7686 10.7529 29.1744 10.7529 28.4268V14.8368ZM13.2446 14.8367C13.2446 14.4342 13.0528 14.1468 12.0945 14.1468C11.1361 14.1468 10.9444 14.4151 10.9444 14.8367V28.4268C10.9444 29.0594 11.4619 29.5769 12.0945 29.5769H13.2446V14.8367Z" fill="#D72B27"/>
<path d="M30.8789 29.7686H29.5371V14.7985C29.5371 14.0509 30.1313 13.9551 30.8789 13.9551C31.6264 13.9551 32.2206 14.0509 32.2206 14.7985V28.446C32.2206 29.1744 31.6264 29.7686 30.8789 29.7686Z" fill="#D54B3D"/>
<path fill-rule="evenodd" clip-rule="evenodd" d="M29.5371 14.7985C29.5371 14.0509 30.1313 13.9551 30.8789 13.9551C31.6264 13.9551 32.2206 14.0509 32.2206 14.7985V28.446C32.2206 29.1936 31.6264 29.7878 30.8789 29.7878H29.5371V14.7985ZM32.0287 14.7985C32.0287 14.3192 31.7412 14.1468 30.8787 14.1468C30.0161 14.1468 29.7286 14.3 29.7286 14.7985V29.596H30.8787C31.5112 29.596 32.0287 29.0785 32.0287 28.446V14.7985Z" fill="#D72B27"/>
<path d="M25.1289 29.7685L10.8652 15.3941L11.6155 15.6992L21.5445 22.8489L32.221 15.02V28.4459C32.221 29.1743 31.6268 29.7685 30.8792 29.7685H25.1289Z" fill="url(#paint0_linear)"/>
<path d="M21.467 23.3091L11.3271 15.9486C10.7329 15.5078 10.5605 14.6644 11.0013 14.0701C11.4421 13.4759 12.3047 13.3417 12.9181 13.7826L21.4861 20.0122L30.1117 13.706C30.7059 13.2651 31.5493 13.3993 31.9901 14.0126C32.431 14.6068 32.2968 15.4503 31.6834 15.8911L21.467 23.3091Z" fill="#D54B3D"/>
<path fill-rule="evenodd" clip-rule="evenodd" d="M30.0932 13.6867C30.3232 13.5142 30.6107 13.4375 30.8791 13.4375C31.3008 13.4375 31.7033 13.6292 31.9717 14.0125C32.3933 14.6259 32.2592 15.4502 31.665 15.891L21.4677 23.3281L11.3278 15.9485C10.7336 15.5076 10.5612 14.6643 10.9828 14.07C11.2511 13.7059 11.6729 13.5142 12.0946 13.5142C12.3821 13.5142 12.6696 13.5909 12.8996 13.7633L21.4677 19.9929L30.0932 13.6867ZM31.8181 14.1085C31.5882 13.8017 31.2431 13.6293 30.8789 13.6293C30.6297 13.6293 30.3998 13.706 30.1889 13.8401L21.5825 20.1464L21.4675 20.223L21.3525 20.1464L12.8036 13.9359C12.6119 13.7826 12.3628 13.706 12.1136 13.706C11.7302 13.706 11.366 13.8976 11.1552 14.1851C10.791 14.6835 10.9252 15.4119 11.4427 15.7952L21.4675 23.079L31.569 15.7185C32.0674 15.3352 32.1824 14.626 31.8181 14.1085Z" fill="#D72B27"/>
<defs>
<linearGradient id="paint0_linear" x1="10.866" y1="29.7702" x2="32.2279" y2="29.7702" gradientUnits="userSpaceOnUse">
<stop stop-opacity="0.1"/>
<stop offset="1" stop-opacity="0.2"/>
</linearGradient>
</defs>
</svg>
