<svg width="24" height="30" viewBox="0 0 24 30" fill="none" xmlns="http://www.w3.org/2000/svg">
<path d="M12 29.25C10.0002 27.5442 8.14648 25.6741 6.45836 23.6592C3.92502 20.6335 0.916688 16.1273 0.916688 11.8333C0.914443 7.34861 3.61508 3.30453 7.75838 1.58821C11.9017 -0.128114 16.671 0.821626 19.8407 3.99425C21.9251 6.06938 23.0927 8.89211 23.0834 11.8333C23.0834 16.1273 20.075 20.6335 17.5417 23.6592C15.8536 25.6741 13.9999 27.5442 12 29.25ZM12 7.08333C10.303 7.08333 8.73491 7.98867 7.8864 9.45833C7.0379 10.928 7.0379 12.7387 7.8864 14.2083C8.73491 15.678 10.303 16.5833 12 16.5833C14.6234 16.5833 16.75 14.4567 16.75 11.8333C16.75 9.20998 14.6234 7.08333 12 7.08333Z" fill="#540B0B"/>
</svg>
