<svg width="53" height="53" viewBox="0 0 53 53" fill="none" xmlns="http://www.w3.org/2000/svg">
<path d="M12.1458 33.125C14.0774 33.1193 15.9358 32.386 17.3509 31.0713L31.175 38.9705C30.2175 42.712 32.1522 46.589 35.7175 48.0737C39.2828 49.5583 43.3974 48.2002 45.3785 44.885C47.3595 41.5697 46.6061 37.3028 43.6096 34.8663C40.613 32.4299 36.2821 32.563 33.4408 35.1788L19.6166 27.2796C19.7615 26.7254 19.8416 26.1562 19.8551 25.5836L33.4386 17.8213C36.1347 20.2724 40.1793 20.4996 43.1331 18.366C46.0869 16.2324 47.1422 12.3213 45.6625 8.99143C44.1829 5.66159 40.5729 3.82353 37.0097 4.58576C33.4466 5.34799 30.9045 8.50208 30.9167 12.1459C30.9245 12.782 31.0113 13.4148 31.175 14.0296L18.6229 21.2C16.6122 18.0894 12.6774 16.8424 9.24211 18.2272C5.8068 19.6119 3.83673 23.239 4.54532 26.8745C5.25391 30.51 8.44193 33.1318 12.1458 33.125Z" fill="#F5F0F0"/>
</svg>
